<svg xmlns="http://www.w3.org/2000/svg" viewBox="0 0 980 600" font-family="'Helvetica Neue',Arial,sans-serif">
  <!-- background -->
  <rect x="1" y="1" width="978" height="598" rx="14" fill="#fbfaf9" stroke="#e2ddd5"/>

  <!-- title -->
  <text x="40" y="44" font-size="22" font-weight="700" fill="#2b2b31">Wood-Moisture AFE — Switchable-R2 Auto-Range</text>
  <text x="40" y="68" font-size="14" fill="#6b6b73">One probe channel. A 220&#8202;k&#937; dry-range pull-down sits beside the stock 100&#8202;k&#937;; firmware picks the range per read.</text>

  <!-- ===================== signal path (y=200) ===================== -->
  <g stroke="#2b2b31" stroke-width="2.5" fill="none" stroke-linecap="round">
    <line x1="128" y1="200" x2="150" y2="200"/>
    <line x1="212" y1="200" x2="250" y2="200"/>
    <line x1="360" y1="200" x2="400" y2="200"/>
    <line x1="510" y1="200" x2="540" y2="200"/>
    <line x1="650" y1="200" x2="730" y2="200"/>
    <line x1="730" y1="200" x2="845" y2="200"/>
    <line x1="730" y1="200" x2="730" y2="300"/>
    <line x1="680" y1="300" x2="860" y2="300"/>
  </g>

  <!-- GPIO9 excite terminal -->
  <rect x="40" y="184" width="88" height="32" rx="8" fill="#ffffff" stroke="#3a3a42"/>
  <text x="84" y="199" font-size="12" font-weight="600" text-anchor="middle" fill="#2b2b31">GPIO9</text>
  <text x="84" y="211" font-size="9.5" text-anchor="middle" fill="#6b6b73">excite 0/3.3V</text>

  <!-- R1 10k -->
  <rect x="150" y="185" width="62" height="30" rx="6" fill="#ffffff" stroke="#3a3a42"/>
  <text x="181" y="198" font-size="11" font-weight="600" text-anchor="middle" fill="#2b2b31">R1</text>
  <text x="181" y="210" font-size="11" text-anchor="middle" fill="#6b6b73">10k</text>

  <!-- MUX-A -->
  <rect x="250" y="160" width="110" height="80" rx="8" fill="#eef2f4" stroke="#3a3a42"/>
  <text x="305" y="192" font-size="13" font-weight="600" text-anchor="middle" fill="#2b2b31">MUX-A</text>
  <text x="305" y="208" font-size="10" text-anchor="middle" fill="#6b6b73">CD74HC4067</text>
  <text x="305" y="222" font-size="10" text-anchor="middle" fill="#6b6b73">Ron &#8776; 70&#937;</text>

  <!-- R_wood walnut block -->
  <rect x="400" y="170" width="110" height="60" rx="8" fill="#7c4a24" stroke="#5c3315"/>
  <text x="455" y="197" font-size="14" font-weight="700" text-anchor="middle" fill="#ffffff">R_wood</text>
  <text x="455" y="213" font-size="10" text-anchor="middle" fill="#e8d5c4">probe pair in wood</text>

  <!-- MUX-B -->
  <rect x="540" y="160" width="110" height="80" rx="8" fill="#eef2f4" stroke="#3a3a42"/>
  <text x="595" y="192" font-size="13" font-weight="600" text-anchor="middle" fill="#2b2b31">MUX-B</text>
  <text x="595" y="208" font-size="10" text-anchor="middle" fill="#6b6b73">CD74HC4067</text>
  <text x="595" y="222" font-size="10" text-anchor="middle" fill="#6b6b73">Ron &#8776; 70&#937;</text>

  <!-- sigb node -->
  <circle cx="730" cy="200" r="5" fill="#2b2b31"/>
  <text x="730" y="184" font-size="12" font-weight="600" text-anchor="middle" fill="#2b2b31">sigb</text>

  <!-- GPIO1 ADC terminal -->
  <rect x="845" y="184" width="95" height="32" rx="8" fill="#ffffff" stroke="#3a3a42"/>
  <text x="892" y="199" font-size="12" font-weight="600" text-anchor="middle" fill="#2b2b31">GPIO1</text>
  <text x="892" y="211" font-size="9.5" text-anchor="middle" fill="#6b6b73">ADC sense</text>

  <!-- rail junction dots -->
  <circle cx="680" cy="300" r="4" fill="#2b2b31"/>
  <circle cx="860" cy="300" r="4" fill="#2b2b31"/>

  <!-- ===================== branch A: R2lo 100k (default) ===================== -->
  <g stroke="#2b2b31" stroke-width="2.5" fill="none" stroke-linecap="round">
    <line x1="680" y1="300" x2="680" y2="330"/>
    <line x1="680" y1="384" x2="680" y2="420"/>
  </g>
  <rect x="665" y="330" width="30" height="54" rx="6" fill="#ffffff" stroke="#3a3a42"/>
  <text x="704" y="352" font-size="11" font-weight="600" fill="#2b2b31">R2lo</text>
  <text x="704" y="366" font-size="11" fill="#6b6b73">100k</text>
  <rect x="636" y="420" width="88" height="42" rx="8" fill="#ffffff" stroke="#3a3a42"/>
  <text x="680" y="438" font-size="12" font-weight="600" text-anchor="middle" fill="#2b2b31">GPIO10</text>
  <text x="680" y="452" font-size="9" text-anchor="middle" fill="#6b6b73">range-lo gnd</text>

  <!-- ===================== branch B: R2hi 220k (NEW dry range) ===================== -->
  <g stroke="#c2691c" stroke-width="2.5" fill="none" stroke-linecap="round">
    <line x1="770" y1="300" x2="770" y2="330"/>
    <line x1="770" y1="384" x2="770" y2="420"/>
  </g>
  <circle cx="770" cy="300" r="4" fill="#c2691c"/>
  <rect x="755" y="330" width="30" height="54" rx="6" fill="#fff7ef" stroke="#c2691c" stroke-width="2"/>
  <text x="794" y="352" font-size="11" font-weight="700" fill="#c2691c">R2hi</text>
  <text x="794" y="366" font-size="11" font-weight="600" fill="#c2691c">220k</text>
  <rect x="726" y="420" width="88" height="42" rx="8" fill="#fff7ef" stroke="#c2691c" stroke-width="2"/>
  <text x="770" y="438" font-size="12" font-weight="700" text-anchor="middle" fill="#c2691c">GPIO11</text>
  <text x="770" y="452" font-size="9" text-anchor="middle" fill="#b06a2a">range-hi gnd</text>
  <!-- dry-range badge -->
  <rect x="800" y="306" width="70" height="20" rx="10" fill="#c2691c"/>
  <text x="835" y="320" font-size="10.5" font-weight="700" text-anchor="middle" fill="#ffffff">dry range</text>

  <!-- ===================== branch C: Cadc 22n -> GND ===================== -->
  <g stroke="#2b2b31" stroke-width="2.5" fill="none" stroke-linecap="round">
    <line x1="860" y1="300" x2="860" y2="340"/>
    <line x1="845" y1="340" x2="875" y2="340"/>
    <line x1="847" y1="349" x2="873" y2="349"/>
    <line x1="860" y1="349" x2="860" y2="384"/>
    <line x1="844" y1="384" x2="876" y2="384"/>
    <line x1="850" y1="390" x2="870" y2="390"/>
    <line x1="856" y1="396" x2="864" y2="396"/>
  </g>
  <text x="884" y="345" font-size="10" fill="#6b6b73">Cadc 10&#8211;47n</text>
  <text x="884" y="357" font-size="9" fill="#9a9aa2">optional &#183; 220k S/H</text>

  <!-- caution: no hard ground on sigb -->
  <rect x="372" y="250" width="288" height="48" rx="8" fill="#fdecea" stroke="#e0a49c"/>
  <line x1="660" y1="286" x2="682" y2="300" stroke="#e0a49c" stroke-width="1.5"/>
  <text x="386" y="271" font-size="11.5" font-weight="700" fill="#b3261e">sigb carries NO direct ground</text>
  <text x="386" y="288" font-size="10" fill="#a1403a">reaches ground only through a LOW GPIO (switched) or via Cadc</text>

  <!-- ===================== legend / range-select table ===================== -->
  <rect x="40" y="352" width="560" height="204" rx="10" fill="#ffffff" stroke="#e2ddd5"/>
  <text x="60" y="380" font-size="13" font-weight="700" fill="#2b2b31">RANGE SELECT &amp; SOLVE</text>

  <!-- swatch -->
  <rect x="470" y="368" width="14" height="14" rx="3" fill="#fff7ef" stroke="#c2691c" stroke-width="2"/>
  <text x="490" y="380" font-size="11" fill="#6b6b73">= new dry-range path</text>

  <text x="60" y="408" font-size="12.5" font-weight="600" fill="#2b2b31">100&#8202;k&#937; &#8226; default</text>
  <text x="230" y="408" font-size="12.5" fill="#3a3a42" font-family="'SF Mono',Menlo,monospace">GPIO10 OUTPUT LOW &#8226; GPIO11 INPUT hi-Z</text>

  <text x="60" y="430" font-size="12.5" font-weight="700" fill="#c2691c">220&#8202;k&#937; &#8226; dry end</text>
  <text x="230" y="430" font-size="12.5" fill="#c2691c" font-family="'SF Mono',Menlo,monospace">GPIO11 OUTPUT LOW &#8226; GPIO10 INPUT hi-Z</text>

  <line x1="60" y1="444" x2="580" y2="444" stroke="#ece7df" stroke-width="1"/>

  <text x="60" y="468" font-size="12.5" fill="#3a3a42">Read on 100&#8202;k&#937;. If V(sigb) &lt; 0.80&#8202;V (&#8804; ~9% MC) &#8594; re-read on 220&#8202;k&#937;.</text>
  <text x="60" y="492" font-size="12.5" fill="#3a3a42" font-family="'SF Mono',Menlo,monospace">R_wood = R2 &#183; VCC / V &#8722; R1 &#8722; R2   (use active R2)</text>
  <text x="60" y="516" font-size="12.5" fill="#3a3a42">220&#8202;k&#937; lifts 6% MC from <tspan font-weight="600">0.205&#8202;V</tspan> &#8594; <tspan font-weight="700" fill="#c2691c">0.42&#8202;V</tspan>, off the ADC noise floor.</text>
  <text x="60" y="538" font-size="11" fill="#9a9aa2">MUX address lines (S0&#8211;S3 = GPIO4&#8211;7), EN = GPIO8, shared across MUX-A/B (not shown).</text>
</svg>
